<svg width="76" height="75" viewBox="0 0 76 75" fill="none" xmlns="http://www.w3.org/2000/svg">
<g filter="url(#filter0_d_47_118)">
<g filter="url(#filter1_d_47_118)">
<path d="M19.25 16.4062C19.25 13.8174 21.3487 11.7188 23.9375 11.7188H61.4375C64.0262 11.7188 66.125 13.8174 66.125 16.4062V42.1875C66.125 44.7763 64.0262 46.875 61.4375 46.875H23.9375C21.3487 46.875 19.25 44.7763 19.25 42.1875V16.4062Z" fill="url(#paint0_linear_47_118)"/>
</g>
<g filter="url(#filter2_dd_47_118)">
<path fill-rule="evenodd" clip-rule="evenodd" d="M56.75 53.9062V43.3594C56.75 42.065 55.7006 41.0156 54.4062 41.0156H12.2188C10.9244 41.0156 9.875 42.065 9.875 43.3594V53.9062C9.875 56.4951 11.9737 58.5938 14.5625 58.5938V60.9375C14.5625 62.2318 15.6119 63.2812 16.9062 63.2812H19.25C20.5444 63.2812 21.5938 62.2318 21.5938 60.9375V58.5938H45.0312V60.9375C45.0312 62.2318 46.0806 63.2812 47.375 63.2812H49.7188C51.0131 63.2812 52.0625 62.2318 52.0625 60.9375V58.5938C54.6513 58.5938 56.75 56.4951 56.75 53.9062ZM21.5938 49.2188C21.5938 51.1604 20.0197 52.7344 18.0781 52.7344C16.1365 52.7344 14.5625 51.1604 14.5625 49.2188C14.5625 47.2771 16.1365 45.7031 18.0781 45.7031C20.0197 45.7031 21.5938 47.2771 21.5938 49.2188ZM52.0625 49.2188C52.0625 51.1604 50.4885 52.7344 48.5469 52.7344C46.6053 52.7344 45.0312 51.1604 45.0312 49.2188C45.0312 47.2771 46.6053 45.7031 48.5469 45.7031C50.4885 45.7031 52.0625 47.2771 52.0625 49.2188Z" fill="white" fill-opacity="0.4"/>
</g>
<g filter="url(#filter3_dd_47_118)">
<path d="M47.0821 24.6094H19.5431C19.0222 24.6094 18.5639 24.9531 18.4181 25.4531L15.0001 37.1719C14.7814 37.9219 15.3439 38.6719 16.1251 38.6719H50.5001C51.2814 38.6719 51.8439 37.9219 51.6251 37.1719L48.2071 25.4531C48.0613 24.9531 47.603 24.6094 47.0821 24.6094Z" fill="white" fill-opacity="0.6"/>
</g>
</g>
<defs>
<filter id="filter0_d_47_118" x="7.53125" y="9.375" width="65.625" height="60.9375" filterUnits="userSpaceOnUse" color-interpolation-filters="sRGB">
<feFlood flood-opacity="0" result="BackgroundImageFix"/>
<feColorMatrix in="SourceAlpha" type="matrix" values="0 0 0 0 0 0 0 0 0 0 0 0 0 0 0 0 0 0 127 0" result="hardAlpha"/>
<feOffset dx="2.34375" dy="2.34375"/>
<feGaussianBlur stdDeviation="2.34375"/>
<feColorMatrix type="matrix" values="0 0 0 0 0.615686 0 0 0 0 0.407843 0 0 0 0 0.952941 0 0 0 0.4 0"/>
<feBlend mode="normal" in2="BackgroundImageFix" result="effect1_dropShadow_47_118"/>
<feBlend mode="normal" in="SourceGraphic" in2="effect1_dropShadow_47_118" result="shape"/>
</filter>
<filter id="filter1_d_47_118" x="14.5625" y="7.03125" width="56.25" height="44.5312" filterUnits="userSpaceOnUse" color-interpolation-filters="sRGB">
<feFlood flood-opacity="0" result="BackgroundImageFix"/>
<feColorMatrix in="SourceAlpha" type="matrix" values="0 0 0 0 0 0 0 0 0 0 0 0 0 0 0 0 0 0 127 0" result="hardAlpha"/>
<feOffset/>
<feGaussianBlur stdDeviation="2.34375"/>
<feComposite in2="hardAlpha" operator="out"/>
<feColorMatrix type="matrix" values="0 0 0 0 1 0 0 0 0 1 0 0 0 0 1 0 0 0 0.8 0"/>
<feBlend mode="normal" in2="BackgroundImageFix" result="effect1_dropShadow_47_118"/>
<feBlend mode="normal" in="SourceGraphic" in2="effect1_dropShadow_47_118" result="shape"/>
</filter>
<filter id="filter2_dd_47_118" x="5.1875" y="38.6719" width="56.25" height="31.6406" filterUnits="userSpaceOnUse" color-interpolation-filters="sRGB">
<feFlood flood-opacity="0" result="BackgroundImageFix"/>
<feColorMatrix in="SourceAlpha" type="matrix" values="0 0 0 0 0 0 0 0 0 0 0 0 0 0 0 0 0 0 127 0" result="hardAlpha"/>
<feOffset/>
<feGaussianBlur stdDeviation="1.17188"/>
<feComposite in2="hardAlpha" operator="out"/>
<feColorMatrix type="matrix" values="0 0 0 0 1 0 0 0 0 1 0 0 0 0 1 0 0 0 1 0"/>
<feBlend mode="normal" in2="BackgroundImageFix" result="effect1_dropShadow_47_118"/>
<feColorMatrix in="SourceAlpha" type="matrix" values="0 0 0 0 0 0 0 0 0 0 0 0 0 0 0 0 0 0 127 0" result="hardAlpha"/>
<feOffset dy="2.34375"/>
<feGaussianBlur stdDeviation="2.34375"/>
<feComposite in2="hardAlpha" operator="out"/>
<feColorMatrix type="matrix" values="0 0 0 0 1 0 0 0 0 1 0 0 0 0 1 0 0 0 1 0"/>
<feBlend mode="normal" in2="effect1_dropShadow_47_118" result="effect2_dropShadow_47_118"/>
<feBlend mode="normal" in="SourceGraphic" in2="effect2_dropShadow_47_118" result="shape"/>
</filter>
<filter id="filter3_dd_47_118" x="10.265" y="22.2656" width="46.0952" height="23.4375" filterUnits="userSpaceOnUse" color-interpolation-filters="sRGB">
<feFlood flood-opacity="0" result="BackgroundImageFix"/>
<feColorMatrix in="SourceAlpha" type="matrix" values="0 0 0 0 0 0 0 0 0 0 0 0 0 0 0 0 0 0 127 0" result="hardAlpha"/>
<feOffset/>
<feGaussianBlur stdDeviation="1.17188"/>
<feComposite in2="hardAlpha" operator="out"/>
<feColorMatrix type="matrix" values="0 0 0 0 1 0 0 0 0 1 0 0 0 0 1 0 0 0 1 0"/>
<feBlend mode="normal" in2="BackgroundImageFix" result="effect1_dropShadow_47_118"/>
<feColorMatrix in="SourceAlpha" type="matrix" values="0 0 0 0 0 0 0 0 0 0 0 0 0 0 0 0 0 0 127 0" result="hardAlpha"/>
<feOffset dy="2.34375"/>
<feGaussianBlur stdDeviation="2.34375"/>
<feComposite in2="hardAlpha" operator="out"/>
<feColorMatrix type="matrix" values="0 0 0 0 1 0 0 0 0 1 0 0 0 0 1 0 0 0 1 0"/>
<feBlend mode="normal" in2="effect1_dropShadow_47_118" result="effect2_dropShadow_47_118"/>
<feBlend mode="normal" in="SourceGraphic" in2="effect2_dropShadow_47_118" result="shape"/>
</filter>
<linearGradient id="paint0_linear_47_118" x1="42.6875" y1="11.7188" x2="42.6875" y2="46.875" gradientUnits="userSpaceOnUse">
<stop stop-color="#6966FF"/>
<stop offset="1" stop-color="#9D68F3"/>
</linearGradient>
</defs>
</svg>
