<svg width="30" height="30" viewBox="0 0 30 30" fill="none" xmlns="http://www.w3.org/2000/svg">
<path fill-rule="evenodd" clip-rule="evenodd" d="M4.08669 14.3198C10.118 11.6516 14.1496 9.92697 16.1493 9.08094C21.8904 6.67301 23.0837 6.25 23.8578 6.25C24.019 6.25 24.4061 6.28254 24.6641 6.47778C24.8576 6.64047 24.9221 6.86825 24.9544 7.03095C24.9866 7.19365 25.0189 7.55158 24.9866 7.84444C24.6641 11.1309 23.3417 19.1682 22.6322 22.8452C22.3419 24.4071 21.7613 24.9277 21.213 24.9928C20.0197 25.0904 19.0843 24.1793 17.9232 23.4309C16.1171 22.2269 15.085 21.4785 13.311 20.3071C11.2791 18.9404 12.6015 18.192 13.7626 16.988C14.0529 16.6627 19.3746 11.8143 19.4714 11.3587C19.4714 11.2936 19.5036 11.0984 19.3746 11.0008C19.2456 10.9032 19.0843 10.9357 18.9553 10.9682C18.7618 11.0008 15.859 12.9531 10.2148 16.7928C9.37618 17.3785 8.63436 17.6388 7.95705 17.6388C7.21523 17.6388 5.7961 17.2158 4.73175 16.8579C3.44163 16.4349 2.40953 16.2071 2.50629 15.4912C2.60305 15.1008 3.1191 14.7103 4.08669 14.3198Z" fill="white"/>
</svg>
