<svg width="360" height="360" viewBox="0 0 360 360" fill="none" xmlns="http://www.w3.org/2000/svg">
<path fill-rule="evenodd" clip-rule="evenodd" d="M23 0H0V23V337V360H23H283.5V314H46V46H314V248H360V23V0H337H23ZM235.495 249.869C224.546 249.869 215.11 247.777 207.188 243.594C199.31 239.366 193.235 233.312 188.962 225.435C184.734 217.512 182.62 208.032 182.62 196.994C182.62 186.402 184.756 177.144 189.029 169.222C193.301 161.299 199.332 155.135 207.121 150.729C214.91 146.322 224.101 144.119 234.694 144.119C242.438 144.119 249.448 145.321 255.723 147.724C261.999 150.128 267.362 153.622 271.813 158.206C276.264 162.746 279.691 168.265 282.094 174.763C284.498 181.261 285.699 188.582 285.699 196.727V205.273H218.938V206.875C218.938 210.169 219.628 213.106 221.007 215.688C222.387 218.269 224.368 220.294 226.949 221.763C229.531 223.232 232.646 223.966 236.296 223.966C238.833 223.966 241.147 223.61 243.239 222.898C245.375 222.186 247.2 221.162 248.713 219.827C250.227 218.447 251.339 216.8 252.051 214.886H285.699C284.542 222.008 281.805 228.194 277.488 233.446C273.17 238.653 267.451 242.704 260.33 245.597C253.253 248.445 244.975 249.869 235.495 249.869ZM221.275 177.166C219.806 179.392 219.027 181.995 218.938 184.977H251.784C251.74 182.04 250.983 179.458 249.515 177.233C248.09 174.963 246.154 173.205 243.706 171.959C241.303 170.668 238.566 170.023 235.495 170.023C232.513 170.023 229.775 170.668 227.283 171.959C224.791 173.205 222.788 174.941 221.275 177.166ZM78.4219 111.273V248H170.82V218.091H115.541V111.273H78.4219ZM360 314H314V360H360V314Z" fill="#292929"/>
</svg>
