<svg width="21" height="21" viewBox="0 0 21 21" fill="none" xmlns="http://www.w3.org/2000/svg">
<path fill-rule="evenodd" clip-rule="evenodd" d="M3.22442 10.0465C7.24529 8.26771 9.93304 7.11798 11.2662 6.55397C15.0935 4.94868 15.8891 4.66667 16.4051 4.66667C16.5127 4.66667 16.7707 4.68836 16.9427 4.81852C17.0717 4.92699 17.1147 5.07884 17.1362 5.1873C17.1577 5.29577 17.1792 5.53439 17.1577 5.72963C16.9427 7.92063 16.0611 13.2788 15.5881 15.7301C15.3946 16.7714 15.0075 17.1185 14.642 17.1619C13.8464 17.2269 13.2229 16.6195 12.4488 16.1206C11.2447 15.318 10.5566 14.819 9.37399 14.0381C8.01937 13.127 8.90095 12.628 9.67502 11.8254C9.86854 11.6084 13.4164 8.37618 13.4809 8.07248C13.4809 8.02909 13.5024 7.89893 13.4164 7.83385C13.3304 7.76877 13.2229 7.79047 13.1368 7.81216C13.0078 7.83385 11.0727 9.13544 7.3098 11.6952C6.75075 12.0857 6.2562 12.2592 5.80466 12.2592C5.31011 12.2592 4.36402 11.9772 3.65446 11.7386C2.79438 11.4566 2.10631 11.3047 2.17082 10.8275C2.23533 10.5672 2.57936 10.3069 3.22442 10.0465Z" fill="#292929"/>
</svg>
