<svg width="21" height="21" viewBox="0 0 21 21" fill="none" xmlns="http://www.w3.org/2000/svg">
<g clip-path="url(#clip0_8_249)">
<path fill-rule="evenodd" clip-rule="evenodd" d="M1.90589 1.90589C0.5 3.31177 0.5 5.5745 0.5 10.1V10.9C0.5 15.4255 0.5 17.6882 1.90589 19.0941C3.31177 20.5 5.5745 20.5 10.1 20.5H10.9C15.4255 20.5 17.6882 20.5 19.0941 19.0941C20.5 17.6882 20.5 15.4255 20.5 10.9V10.1C20.5 5.5745 20.5 3.31177 19.0941 1.90589C17.6882 0.5 15.4255 0.5 10.9 0.5H10.1C5.5745 0.5 3.31177 0.5 1.90589 1.90589ZM3.87505 6.58337C3.98338 11.7834 6.58337 14.9084 11.1417 14.9084H11.4001V11.9334C13.0751 12.1 14.3417 13.325 14.85 14.9084H17.2167C16.5667 12.5417 14.8583 11.2334 13.7916 10.7334C14.8583 10.1167 16.3583 8.61671 16.7166 6.58337H14.5666C14.0999 8.23337 12.7168 9.73337 11.4001 9.87504V6.58337H9.25V12.35C7.91667 12.0167 6.23338 10.4 6.15837 6.58337H3.87505Z" fill="#292929"/>
</g>
<defs>
<clipPath id="clip0_8_249">
<rect width="20" height="20" fill="white" transform="translate(0.5 0.5)"/>
</clipPath>
</defs>
</svg>
