<svg width="21" height="21" viewBox="0 0 21 21" fill="none" xmlns="http://www.w3.org/2000/svg">
<g clip-path="url(#clip0_8_262)">
<path d="M10.5 0.5C4.97656 0.5 0.5 4.97656 0.5 10.5C0.5 14.7383 3.13672 18.3555 6.85547 19.8125C6.76953 19.0195 6.6875 17.8086 6.89063 16.9453C7.07422 16.1641 8.0625 11.9766 8.0625 11.9766C8.0625 11.9766 7.76172 11.3789 7.76172 10.4922C7.76172 9.10156 8.56641 8.0625 9.57031 8.0625C10.4219 8.0625 10.8359 8.70312 10.8359 9.47266C10.8359 10.332 10.2891 11.6133 10.0078 12.8008C9.77344 13.7969 10.5078 14.6094 11.4883 14.6094C13.2656 14.6094 14.6328 12.7344 14.6328 10.0312C14.6328 7.63672 12.9141 5.96094 10.457 5.96094C7.61328 5.96094 5.94141 8.09375 5.94141 10.3008C5.94141 11.1602 6.27344 12.082 6.6875 12.582C6.76953 12.6797 6.78125 12.7695 6.75781 12.8672C6.68359 13.1836 6.51172 13.8633 6.48047 14C6.4375 14.1836 6.33594 14.2227 6.14453 14.1328C4.89453 13.5508 4.11328 11.7266 4.11328 10.2578C4.11328 7.10156 6.40625 4.20703 10.7188 4.20703C14.1875 4.20703 16.8828 6.67969 16.8828 9.98438C16.8828 13.4297 14.7109 16.2031 11.6953 16.2031C10.6836 16.2031 9.73047 15.6758 9.40234 15.0547C9.40234 15.0547 8.90234 16.9648 8.78125 17.4336C8.55469 18.3008 7.94531 19.3906 7.53906 20.0547C8.47656 20.3438 9.46875 20.5 10.5 20.5C16.0234 20.5 20.5 16.0234 20.5 10.5C20.5 4.97656 16.0234 0.5 10.5 0.5Z" fill="#292929"/>
</g>
<defs>
<clipPath id="clip0_8_262">
<rect width="20" height="20" fill="white" transform="translate(0.5 0.5)"/>
</clipPath>
</defs>
</svg>
